<svg width="70" height="70" viewBox="0 0 70 70" fill="none" xmlns="http://www.w3.org/2000/svg">
<g clip-path="url(#clip0_256_34)">
<path d="M64.3434 0H4.94949C2.21596 0 0 2.21596 0 4.94949V65.0505C0 67.784 2.21596 70 4.94949 70H64.3434C67.0769 70 69.2929 67.784 69.2929 65.0505V4.94949C69.2929 2.21596 67.0769 0 64.3434 0Z" fill="url(#paint0_radial_256_34)"/>
<mask id="mask0_256_34" style="mask-type:luminance" maskUnits="userSpaceOnUse" x="17" y="18" width="35" height="35">
<path d="M51.6162 18.3838H17.6768V52.3232H51.6162V18.3838Z" fill="white"/>
</mask>
<g mask="url(#mask0_256_34)">
<mask id="mask1_256_34" style="mask-type:luminance" maskUnits="userSpaceOnUse" x="17" y="18" width="35" height="35">
<path d="M17.6768 18.3838H51.6161V52.3232H17.6768V18.3838Z" fill="white"/>
</mask>
<g mask="url(#mask1_256_34)">
<path fill-rule="evenodd" clip-rule="evenodd" d="M51.6161 18.3838H17.6768V52.3232H51.6161V18.3838ZM36.0252 28.4185C37.3971 28.6913 38.6572 29.3648 39.6461 30.3538C39.7775 30.4851 39.9334 30.5893 40.105 30.6604C40.2766 30.7315 40.4606 30.7681 40.6463 30.7681C40.832 30.7681 41.016 30.7315 41.1876 30.6604C41.3592 30.5893 41.5151 30.4851 41.6465 30.3538C41.7778 30.2224 41.882 30.0665 41.9531 29.8949C42.0241 29.7233 42.0607 29.5394 42.0607 29.3536C42.0607 29.1679 42.0241 28.984 41.9531 28.8124C41.882 28.6408 41.7778 28.4848 41.6465 28.3535C40.2621 26.9691 38.4982 26.0263 36.578 25.6443C34.6578 25.2624 32.6674 25.4584 30.8586 26.2077C29.0498 26.9569 27.5038 28.2257 26.4161 29.8535C25.3284 31.4814 24.7478 33.3953 24.7478 35.3531C24.7478 37.311 25.3284 39.2248 26.4161 40.8527C27.5038 42.4806 29.0498 43.7494 30.8586 44.4986C32.6674 45.2478 34.6578 45.4439 36.578 45.0619C38.4982 44.68 40.2621 43.7372 41.6465 42.3528C41.7778 42.2214 41.882 42.0655 41.9531 41.8939C42.0241 41.7223 42.0607 41.5384 42.0607 41.3526C42.0607 41.1669 42.0241 40.983 41.9531 40.8113C41.882 40.6397 41.7778 40.4838 41.6465 40.3525C41.5151 40.2211 41.3592 40.1169 41.1876 40.0459C41.016 39.9748 40.832 39.9382 40.6463 39.9382C40.4606 39.9382 40.2766 39.9748 40.105 40.0459C39.9334 40.1169 39.7775 40.2211 39.6461 40.3525C38.7824 41.2166 37.7094 41.8421 36.5319 42.1681C35.3545 42.4941 34.1126 42.5095 32.9274 42.2127C31.7422 41.916 30.6541 41.3172 29.7692 40.4747C28.8843 39.6323 28.2327 38.5749 27.8781 37.4058C27.5234 36.2366 27.4778 34.9954 27.7455 33.8034C28.0133 32.6113 28.5854 31.5089 29.4059 30.6037C30.2265 29.6985 31.2677 29.0213 32.4279 28.6383C33.588 28.2552 34.827 28.1799 36.0252 28.4185Z" fill="#29262D"/>
</g>
</g>
<mask id="mask2_256_34" style="mask-type:luminance" maskUnits="userSpaceOnUse" x="31" y="35" width="26" height="29">
<path d="M56.5658 35.3535H31.1113V63.6363H56.5658V35.3535Z" fill="white"/>
</mask>
<g mask="url(#mask2_256_34)">
<path d="M54.2412 47.0202C54.0423 46.9428 53.5821 46.8103 53.3662 46.8103C51.2583 46.8103 49.8321 47.7383 48.0537 48.716L48.0026 48.6663C48.4003 46.0535 49.3378 43.5898 49.3378 40.9106C49.3378 36.961 47.1673 35.3535 43.1787 35.3535C36.6389 35.3535 33.3264 41.6343 33.3264 46.3131C33.3264 51.1687 36.2412 53.8589 41.2014 53.8589C41.8833 53.8589 41.8264 53.8036 41.8264 54.0688C40.8662 61.1892 36.6673 61.4212 36.6673 59.2945C36.6673 57.1291 39.2242 56.0574 39.2526 55.9249C39.2355 55.2509 36.5821 54.4002 35.906 54.4002C33.9798 54.4058 32.9287 57.2285 32.9287 58.7808C32.9287 61.6477 34.7923 63.6363 37.7867 63.6363C42.1844 63.6363 45.4003 59.3387 46.3889 55.6045C47.2469 52.2624 47.0253 52.1078 47.5083 51.8702C49.3378 50.9754 50.7753 50.3788 52.8378 50.3788C53.8492 50.3788 54.5708 50.5832 56.1844 50.8428C56.3492 50.8428 56.5651 50.6826 56.5651 50.5224C56.5651 50.0805 54.6673 47.1804 54.2412 47.0202ZM44.281 42.3579C43.7526 44.8272 43.2242 47.3074 42.7014 49.7767C42.5708 50.3401 41.9458 50.2075 41.4514 50.2075C39.2753 50.2075 38.6673 47.8985 38.6673 46.1695C38.6673 43.5732 39.6901 40.1318 42.1787 38.8005C42.5764 38.574 43.0196 38.4304 43.4628 38.4304C44.5196 38.4304 44.5992 39.1651 44.5992 40.0158C44.5935 40.8057 44.4458 41.5901 44.281 42.3579Z" fill="#F38D2F"/>
</g>
</g>
<defs>
<radialGradient id="paint0_radial_256_34" cx="0" cy="0" r="1" gradientUnits="userSpaceOnUse" gradientTransform="translate(34.6465 35) rotate(90) scale(35 34.6465)">
<stop stop-color="#FBEBDF"/>
<stop offset="0.118281" stop-color="#FBEBDF"/>
<stop offset="1" stop-color="#0F172A"/>
</radialGradient>
<clipPath id="clip0_256_34">
<rect width="70" height="70" fill="white"/>
</clipPath>
</defs>
</svg>
