<svg width="42" height="42" viewBox="0 0 42 42" fill="none" xmlns="http://www.w3.org/2000/svg">
<path d="M31.821 0.68457H10.3455C5.11295 0.68457 0.871094 4.92643 0.871094 10.159V31.6344C0.871094 36.867 5.11295 41.1089 10.3455 41.1089H31.821C37.0536 41.1089 41.2954 36.867 41.2954 31.6344V10.159C41.2954 4.92643 37.0536 0.68457 31.821 0.68457Z" fill="#0277BD"/>
<path d="M9.35961 16.8939L9.81155 21.9378H21.0989V16.8939H9.35961ZM21.0988 6.68506H8.45117L8.90974 11.7289H21.0988V6.68506ZM21.0988 35.2412V29.9935L21.0767 29.9993L15.4593 28.4826L15.1002 24.4598H10.0369L10.7435 32.3795L21.0756 35.2477L21.0988 35.2412Z" fill="#EBEBEB"/>
<path d="M27.292 21.9378L26.7065 28.4793L21.0811 29.9977V35.2452L31.4213 32.3795L31.4971 31.5272L32.6824 18.2485L32.8054 16.8939L33.716 6.68506H21.0811V11.7289H28.1883L27.7294 16.8939H21.0811V21.9378H27.292Z" fill="white"/>
</svg>
