<svg width="34" height="34" viewBox="0 0 34 34" fill="none" xmlns="http://www.w3.org/2000/svg">
<path d="M2.83301 8.50033C2.83301 7.74888 3.13152 7.02821 3.66287 6.49686C4.19422 5.9655 4.91489 5.66699 5.66634 5.66699H28.333C29.0845 5.66699 29.8051 5.9655 30.3365 6.49686C30.8678 7.02821 31.1663 7.74888 31.1663 8.50033V25.5003C31.1663 26.2518 30.8678 26.9724 30.3365 27.5038C29.8051 28.0351 29.0845 28.3337 28.333 28.3337H5.66634C4.91489 28.3337 4.19422 28.0351 3.66287 27.5038C3.13152 26.9724 2.83301 26.2518 2.83301 25.5003V8.50033ZM7.81826 8.50033L16.9997 16.5342L26.1811 8.50033H7.81826ZM28.333 10.3831L17.9333 19.4837C17.6749 19.7101 17.3431 19.8349 16.9997 19.8349C16.6562 19.8349 16.3244 19.7101 16.0661 19.4837L5.66634 10.3831V25.5003H28.333V10.3831Z" fill="#FBEBDF"/>
</svg>
