<svg width="41" height="40" viewBox="0 0 41 40" fill="none" xmlns="http://www.w3.org/2000/svg">
<rect width="41" height="40" rx="9" fill="white"/>
<path d="M20.5 3C18.2019 3 15.9262 3.45063 13.803 4.32618C11.6798 5.20172 9.75066 6.48502 8.12563 8.1028C4.84374 11.3701 3 15.8014 3 20.4221C3 28.1226 8.0225 34.6559 14.97 36.973C15.845 37.1124 16.125 36.5723 16.125 36.1019V33.1576C11.2775 34.2029 10.245 30.823 10.245 30.823C9.44 28.8021 8.3025 28.262 8.3025 28.262C6.71 27.1818 8.425 27.2167 8.425 27.2167C10.175 27.3386 11.1025 29.0111 11.1025 29.0111C12.625 31.6593 15.1975 30.8753 16.195 30.4572C16.3525 29.3247 16.8075 28.5582 17.2975 28.1226C13.4125 27.6871 9.335 26.1888 9.335 19.551C9.335 17.6171 10 16.0665 11.1375 14.8296C10.9625 14.394 10.35 12.5821 11.3125 10.2302C11.3125 10.2302 12.7825 9.75976 16.125 12.0072C17.5075 11.6239 19.0125 11.4323 20.5 11.4323C21.9875 11.4323 23.4925 11.6239 24.875 12.0072C28.2175 9.75976 29.6875 10.2302 29.6875 10.2302C30.65 12.5821 30.0375 14.394 29.8625 14.8296C31 16.0665 31.665 17.6171 31.665 19.551C31.665 26.2062 27.57 27.6696 23.6675 28.1052C24.2975 28.6453 24.875 29.708 24.875 31.3283V36.1019C24.875 36.5723 25.155 37.1298 26.0475 36.973C32.995 34.6385 38 28.1226 38 20.4221C38 18.1342 37.5474 15.8687 36.6679 13.7549C35.7884 11.6412 34.4994 9.72059 32.8744 8.1028C31.2493 6.48502 29.3202 5.20172 27.197 4.32618C25.0738 3.45063 22.7981 3 20.5 3Z" fill="black"/>
</svg>
