<svg width="42" height="42" viewBox="0 0 42 42" fill="none" xmlns="http://www.w3.org/2000/svg">
<path d="M31.4671 0.57959H9.82386C4.55039 0.57959 0.275391 4.85459 0.275391 10.1281V31.7713C0.275391 37.0447 4.55039 41.3197 9.82386 41.3197H31.4671C36.7405 41.3197 41.0155 37.0447 41.0155 31.7713V10.1281C41.0155 4.85459 36.7405 0.57959 31.4671 0.57959Z" fill="#E14E1D"/>
<path d="M7.91406 6.62598L9.28427 21.9979H26.9028L26.3116 28.5911L20.6388 30.1249L14.9767 28.5934L14.5982 24.3599H9.49593L10.2256 32.5208L20.6377 35.4127L31.0631 32.5208L32.4608 16.9153H13.9334L13.4682 11.7097H32.9214L33.3767 6.62598H7.91406Z" fill="white"/>
</svg>
