<svg width="30" height="29" viewBox="0 0 30 29" fill="none" xmlns="http://www.w3.org/2000/svg">
<path d="M0 2.07713C0 0.929813 0.98625 0 2.20312 0H27.7969C29.0138 0 30 0.929813 30 2.07713V26.9229C30 28.0702 29.0138 29 27.7969 29H2.20312C0.98625 29 0 28.0702 0 26.9229V2.07713ZM9.26812 24.2766V11.1813H4.76625V24.2766H9.26812ZM7.01813 9.39237C8.5875 9.39237 9.56437 8.38825 9.56437 7.13037C9.53625 5.84531 8.58938 4.86838 7.04813 4.86838C5.50688 4.86838 4.5 5.84713 4.5 7.13037C4.5 8.38825 5.47687 9.39237 6.98812 9.39237H7.01813ZM16.2206 24.2766V16.9632C16.2206 16.5717 16.2506 16.1802 16.3706 15.9011C16.695 15.1199 17.4356 14.3097 18.6806 14.3097C20.31 14.3097 20.9606 15.5096 20.9606 17.2713V24.2766H25.4625V16.7656C25.4625 12.7419 23.2425 10.8714 20.28 10.8714C17.8913 10.8714 16.8206 12.1401 16.2206 13.0337V13.079H16.1906L16.2206 13.0337V11.1813H11.7206C11.7769 12.4102 11.7206 24.2766 11.7206 24.2766H16.2206Z" fill="#F38D2F"/>
</svg>
