<svg width="42" height="42" viewBox="0 0 42 42" fill="none" xmlns="http://www.w3.org/2000/svg">
<path d="M31.5082 0.57959H9.90692C4.64366 0.57959 0.376953 4.8463 0.376953 10.1096V31.7108C0.376953 36.9741 4.64366 41.2408 9.90692 41.2408H31.5082C36.7714 41.2408 41.0381 36.9741 41.0381 31.7108V10.1096C41.0381 4.8463 36.7714 0.57959 31.5082 0.57959Z" fill="#242938"/>
<path d="M20.7073 23.92C22.3439 23.92 23.6705 22.5933 23.6705 20.9568C23.6705 19.3204 22.3439 17.9937 20.7073 17.9937C19.0709 17.9937 17.7441 19.3204 17.7441 20.9568C17.7441 22.5933 19.0709 23.92 20.7073 23.92Z" fill="#00D8FF"/>
<path d="M20.7078 14.9321C24.6863 14.9321 28.3821 15.503 31.1689 16.4625C34.5264 17.6183 36.5908 19.3704 36.5908 20.957C36.5908 22.6103 34.403 24.4716 30.7973 25.6662C28.0715 26.5693 24.4844 27.0407 20.7078 27.0407C16.8358 27.0407 13.1691 26.5982 10.4124 25.6562C6.92478 24.4642 4.82422 22.5788 4.82422 20.957C4.82422 19.3833 6.79533 17.6447 10.1057 16.4906C12.9028 15.5154 16.6898 14.9321 20.7072 14.9321H20.7078Z" stroke="#00D8FF" stroke-width="1.41536"/>
<path d="M15.4632 17.9616C17.4508 14.5153 19.7915 11.5988 22.0149 9.66422C24.6934 7.33303 27.2427 6.42006 28.6169 7.21248C30.0491 8.03841 30.5686 10.8637 29.8023 14.5839C29.2233 17.3964 27.8393 20.7392 25.9525 24.0108C24.0181 27.365 21.8031 30.3203 19.6101 32.2371C16.8352 34.6628 14.1523 35.5406 12.7474 34.7304C11.3842 33.9448 10.8629 31.3684 11.517 27.9241C12.0695 25.0138 13.4563 21.4418 15.4625 17.9616H15.4632Z" stroke="#00D8FF" stroke-width="1.41536"/>
<path d="M15.4676 24.0191C13.4744 20.5766 12.1174 17.0914 11.551 14.1991C10.8691 10.7142 11.3512 8.04973 12.7243 7.25493C14.1552 6.42646 16.8622 7.3874 19.7024 9.90935C21.8499 11.816 24.0549 14.684 25.9471 17.9525C27.8871 21.3035 29.341 24.6986 29.9066 27.5557C30.6223 31.1713 30.0431 33.9339 28.6395 34.7463C27.2776 35.5348 24.7854 34.7001 22.128 32.4133C19.8827 30.4812 17.4805 27.4959 15.4676 24.0191Z" stroke="#00D8FF" stroke-width="1.41536"/>
</svg>
