<svg width="37" height="37" viewBox="0 0 37 37" fill="none" xmlns="http://www.w3.org/2000/svg">
<path fill-rule="evenodd" clip-rule="evenodd" d="M18.7894 0.648438C22.3829 0.648437 25.8957 1.71404 28.8836 3.71051C31.8716 5.70697 34.2004 8.54462 35.5755 11.8646C36.9507 15.1846 37.3105 18.8378 36.6095 22.3623C35.9084 25.8868 34.178 29.1243 31.6369 31.6653C29.0959 34.2063 25.8585 35.9367 22.334 36.6378C18.8095 37.3389 15.1563 36.979 11.8363 35.6039C8.51629 34.2287 5.67865 31.8999 3.68219 28.912C1.68572 25.924 0.620117 22.4112 0.620117 18.8177C0.620117 13.9989 2.53437 9.37748 5.94176 5.97008C9.34916 2.56269 13.9706 0.648438 18.7894 0.648438Z" fill="#CC6699"/>
<path d="M30.1865 8.42511C29.3637 5.19877 24.0128 4.14236 18.9488 5.93593C15.7774 7.00162 12.8473 8.68233 10.3262 10.8819C7.53724 13.4904 7.09209 15.7616 7.27508 16.7103C7.92399 20.0586 12.5091 22.2467 14.3948 23.8703V23.8793C13.8394 24.1532 9.76946 26.2154 8.81428 28.3178C7.80978 30.5397 8.97391 32.1334 9.7461 32.3475C10.9055 32.6266 12.1231 32.5358 13.2282 32.0877C14.3333 31.6397 15.2704 30.8569 15.9081 29.8492C16.435 29.0328 16.7647 28.1049 16.8711 27.139C16.9774 26.1731 16.8574 25.1958 16.5206 24.2843C17.4289 24.0535 18.3731 23.9993 19.3018 24.1246C22.4892 24.4971 23.1148 26.4866 22.9954 27.3198C22.9392 27.6164 22.8198 27.8974 22.6454 28.1438C22.4709 28.3901 22.2455 28.596 21.9844 28.7474C21.7612 28.8863 21.6924 28.933 21.7118 29.0368C21.7391 29.1861 21.8416 29.1809 22.0324 29.1484C22.5114 28.9976 22.9334 28.7051 23.2429 28.3097C23.5525 27.9142 23.7349 27.4343 23.7663 26.9331C23.8428 24.9864 21.9727 22.7983 18.6607 22.8541C17.6988 22.8266 16.7389 22.9582 15.8198 23.2434C15.7738 23.1909 15.7271 23.139 15.6797 23.0877C13.6317 20.9035 9.84733 19.3578 10.007 16.4209C10.0654 15.3528 10.4365 12.5417 17.2747 9.13112C22.8812 6.33695 27.369 7.10654 28.145 8.81056C29.2534 11.2452 25.7467 15.7681 19.9248 16.4209C19.2813 16.5515 18.6166 16.5356 17.9802 16.3743C17.3437 16.213 16.7517 15.9104 16.2481 15.4891C15.9418 15.1516 15.8964 15.1373 15.7822 15.1996C15.5966 15.3022 15.7147 15.6007 15.7822 15.7772C16.0051 16.1789 16.306 16.5321 16.6673 16.8161C17.0285 17.1 17.4428 17.3089 17.8859 17.4306C20.175 17.9279 22.5625 17.6918 24.7098 16.7557C28.2411 15.3943 30.995 11.5982 30.1865 8.42511ZM15.1787 24.8696C15.4365 25.7582 15.4234 26.7035 15.1411 27.5846C15.1108 27.6763 15.0775 27.7671 15.0411 27.8571C15.0048 27.9471 14.9654 28.0336 14.923 28.1167C14.7046 28.5636 14.4217 28.9759 14.0834 29.3405C13.0282 30.4916 11.5526 30.9277 10.9206 30.5604C10.238 30.1646 10.5793 28.5411 11.8031 27.2471C12.7435 26.3173 13.8277 25.5451 15.0139 24.9604L15.1787 24.8696Z" fill="white"/>
</svg>
