<svg width="42" height="42" viewBox="0 0 42 42" fill="none" xmlns="http://www.w3.org/2000/svg">
<mask id="mask0_267_89" style="mask-type:luminance" maskUnits="userSpaceOnUse" x="0" y="0" width="42" height="42">
<path d="M0.478516 0.789551H41.2187V41.5297H0.478516V0.789551Z" fill="white"/>
</mask>
<g mask="url(#mask0_267_89)">
<path d="M40.2494 0.789552H1.4461C1.18932 0.790002 0.943219 0.89232 0.761811 1.07405C0.580404 1.25577 0.478517 1.50205 0.478517 1.75883V40.5621C0.478293 40.6895 0.503212 40.8156 0.551843 40.9333C0.600475 41.051 0.671863 41.158 0.761913 41.248C0.851963 41.3381 0.958904 41.4094 1.0766 41.4581C1.1943 41.5067 1.32044 41.5316 1.44779 41.5314H40.2511C40.3784 41.5314 40.5044 41.5063 40.622 41.4576C40.7396 41.4089 40.8465 41.3375 40.9365 41.2475C41.0265 41.1575 41.0979 41.0506 41.1466 40.933C41.1953 40.8154 41.2204 40.6894 41.2204 40.5621V1.75713C41.2201 1.62984 41.1948 1.50385 41.1459 1.38633C41.097 1.26882 41.0254 1.16209 40.9353 1.07225C40.8451 0.982398 40.7381 0.911189 40.6204 0.862684C40.5028 0.814179 40.3767 0.789329 40.2494 0.789552ZM24.7291 22.5618H19.8793V37.6492H15.9988V22.5618H11.149V19.2194H24.7291V22.5618ZM25.8155 36.7869V32.7553C25.8155 32.7553 28.0189 34.4155 30.6619 34.4155C33.3049 34.4155 33.203 32.6874 33.203 32.4497C33.203 29.9425 25.7136 29.9425 25.7136 24.3849C25.7136 16.8276 36.6269 19.8101 36.6269 19.8101L36.4911 23.402C36.4911 23.402 34.6612 22.1815 32.5936 22.1815C30.5261 22.1815 29.7809 23.1661 29.7809 24.2151C29.7809 26.9261 37.3382 26.6561 37.3382 32.1119C37.3382 40.5146 25.8155 36.7886 25.8155 36.7886" fill="white"/>
</g>
</svg>
