<svg width="41" height="40" viewBox="0 0 41 40" fill="none" xmlns="http://www.w3.org/2000/svg">
<rect width="41" height="40" rx="9" fill="white"/>
<path d="M31.0249 31.1538H37.9999M37.9999 31.1538L34.1249 27.3077M37.9999 31.1538L34.1249 35M22.5 5L18.625 8.84615L22.5 12.6923" stroke="black" stroke-width="2.84234" stroke-linecap="round" stroke-linejoin="round"/>
<path d="M20.1749 8.84619C23.258 8.84619 26.2149 10.0618 28.395 12.2257C30.5751 14.3896 31.7998 17.3245 31.7998 20.3847C31.7998 23.4448 30.5751 26.3797 28.395 28.5436C26.2149 30.7075 23.258 31.9231 20.1749 31.9231H7" stroke="black" stroke-width="2.84234" stroke-linecap="round" stroke-linejoin="round"/>
<path d="M14.3716 10.3848C12.6015 11.3969 11.1315 12.8542 10.1094 14.6097C9.08737 16.3653 8.54944 18.3572 8.5498 20.3848C8.5498 22.9817 9.4147 25.3786 10.8748 27.3078" stroke="black" stroke-width="2.84234" stroke-linecap="round" stroke-linejoin="round"/>
</svg>
