<svg width="41" height="42" viewBox="0 0 41 42" fill="none" xmlns="http://www.w3.org/2000/svg">
<path d="M31.3024 0.68457H9.82699C4.5944 0.68457 0.352539 4.92643 0.352539 10.159V31.6344C0.352539 36.867 4.5944 41.1089 9.82699 41.1089H31.3024C36.535 41.1089 40.7769 36.867 40.7769 31.6344V10.159C40.7769 4.92643 36.535 0.68457 31.3024 0.68457Z" fill="#F4F2ED"/>
<path d="M36.3549 29.5715C35.8953 29.7456 35.3877 29.7452 34.9283 29.5705C34.4688 29.3958 34.0893 29.0588 33.8614 28.6232C32.4303 26.4809 30.85 24.4352 29.3311 22.3456L28.6724 21.4676C26.8638 23.8909 25.0551 26.2175 23.4045 28.6321C23.1895 29.0484 22.8305 29.3723 22.3944 29.5435C21.9583 29.7148 21.4748 29.7216 21.034 29.5628L27.8208 20.458L21.508 12.231C21.9624 12.0669 22.4596 12.0646 22.9155 12.2246C23.3713 12.3846 23.7581 12.6969 24.0104 13.109C25.4765 15.2515 27.1009 17.2972 28.7163 19.4659C30.3407 17.3147 31.9474 15.2601 33.4488 13.1353C33.665 12.7258 34.0242 12.4101 34.4581 12.2482C34.8919 12.0863 35.3702 12.0896 35.8018 12.2574L33.3522 15.506C32.2547 16.9546 31.1748 18.4121 30.0334 19.8257C29.9414 19.908 29.8678 20.0089 29.8174 20.1216C29.767 20.2343 29.7409 20.3564 29.7409 20.4799C29.7409 20.6033 29.767 20.7254 29.8174 20.8381C29.8678 20.9509 29.9414 21.0517 30.0334 21.134C32.1319 23.9173 34.2126 26.7092 36.3549 29.5715ZM4.77344 20.3438C4.95787 19.4659 5.07188 18.5088 5.32659 17.6133C6.8455 12.2136 13.0353 9.96582 17.2936 13.3111C19.7871 15.2691 20.4105 18.0436 20.2877 21.1692H6.23977C6.01143 26.7533 10.0414 30.1248 15.1952 28.4039C16.0312 28.1048 16.7796 27.6023 17.3728 26.9416C17.966 26.2809 18.3854 25.4829 18.593 24.6196C18.8653 23.7417 19.3042 23.5925 20.1383 23.847C20.001 24.9159 19.6231 25.9397 19.033 26.8415C18.443 27.7433 17.6562 28.4996 16.7318 29.0535C15.2044 29.8888 13.4521 30.2197 11.7253 29.999C9.99853 29.7782 8.38579 29.0171 7.11773 27.8244C5.86321 26.4138 5.10466 24.6315 4.95787 22.7495C4.95787 22.4511 4.84371 22.1525 4.78228 21.8716C4.77647 21.3623 4.77352 20.8531 4.77344 20.3438ZM6.25729 19.9663H18.9619C18.8828 15.9188 16.3278 13.0477 12.9213 13.0215C9.12837 12.9687 6.41536 15.7782 6.24845 19.9487L6.25729 19.9663Z" fill="#0F0F0F"/>
</svg>
