<svg width="43" height="43" viewBox="0 0 43 43" fill="none" xmlns="http://www.w3.org/2000/svg">
<path d="M0 0H42.3192V42.3192H0V0Z" fill="#F7DF1E"/>
<path d="M11.1271 35.365L14.3655 33.4051C14.9904 34.5128 15.5587 35.4501 16.922 35.4501C18.2288 35.4501 19.0529 34.939 19.0529 32.9506V19.4286H23.0297V33.0068C23.0297 37.1258 20.6152 39.0008 17.0925 39.0008C13.9111 39.0008 12.0644 37.3531 11.127 35.3646M25.1898 34.9388L28.4279 33.064C29.2804 34.4561 30.3883 35.4787 32.3482 35.4787C33.9962 35.4787 35.0469 34.6548 35.0469 33.5185C35.0469 32.155 33.9674 31.672 32.1494 30.8768L31.1554 30.4503C28.2861 29.2292 26.3829 27.6951 26.3829 24.4567C26.3829 21.4738 28.6554 19.2012 32.2064 19.2012C34.7346 19.2012 36.5527 20.0819 37.8593 22.3829L34.7627 24.3716C34.0808 23.1501 33.3426 22.6672 32.2062 22.6672C31.0415 22.6672 30.3029 23.4058 30.3029 24.3716C30.3029 25.5646 31.0415 26.0478 32.7458 26.7864L33.74 27.2124C37.1205 28.6613 39.0238 30.1384 39.0238 33.4618C39.0238 37.0414 36.2115 39.0013 32.4334 39.0013C28.7405 39.0013 26.3543 37.2401 25.1897 34.939" fill="black"/>
</svg>
