<svg width="24" height="24" viewBox="0 0 24 24" fill="none" xmlns="http://www.w3.org/2000/svg">
<path d="M11.7677 11.2773C11.1175 11.2773 10.4939 11.019 10.0342 10.5593C9.5744 10.0995 9.31611 9.47596 9.31611 8.82577C9.31611 8.17558 9.5744 7.55201 10.0342 7.09226C10.4939 6.6325 11.1175 6.37422 11.7677 6.37422C12.4179 6.37422 13.0414 6.6325 13.5012 7.09226C13.9609 7.55201 14.2192 8.17558 14.2192 8.82577C14.2192 9.14771 14.1558 9.4665 14.0326 9.76394C13.9094 10.0614 13.7288 10.3316 13.5012 10.5593C13.2735 10.7869 13.0033 10.9675 12.7058 11.0907C12.4084 11.2139 12.0896 11.2773 11.7677 11.2773ZM11.7677 1.96143C9.94713 1.96143 8.20115 2.68463 6.91384 3.97194C5.62653 5.25926 4.90332 7.00523 4.90332 8.82577C4.90332 13.974 11.7677 21.5738 11.7677 21.5738C11.7677 21.5738 18.632 13.974 18.632 8.82577C18.632 7.00523 17.9088 5.25926 16.6215 3.97194C15.3342 2.68463 13.5882 1.96143 11.7677 1.96143Z" fill="#FBEBDF"/>
</svg>
