<svg width="42" height="42" viewBox="0 0 42 42" fill="none" xmlns="http://www.w3.org/2000/svg">
<path d="M31.5612 0.68457H10.0858C4.85318 0.68457 0.611328 4.92643 0.611328 10.159V31.6344C0.611328 36.867 4.85318 41.1089 10.0858 41.1089H31.5612C36.7938 41.1089 41.0357 36.867 41.0357 31.6344V10.159C41.0357 4.92643 36.7938 0.68457 31.5612 0.68457Z" fill="#023430"/>
<path d="M27.6409 17.674C25.9771 10.3343 22.5094 8.38033 21.6248 6.99911C21.26 6.39064 20.9369 5.75814 20.6576 5.10596C20.6109 5.75812 20.525 6.16867 19.9707 6.66324C18.858 7.65537 14.1318 11.5067 13.734 19.8463C13.3634 27.622 19.4503 32.4165 20.2543 32.9122C20.8727 33.2165 21.6258 32.9187 21.9932 32.6393C24.9273 30.6257 28.9362 25.2572 27.6441 17.674" fill="#10AA50"/>
<path d="M22.0181 32.6252C21.1878 32.2416 20.9477 30.4451 20.9107 28.7716C21.116 26.0109 21.1758 23.2413 21.0901 20.4743C21.0465 19.0225 21.1106 7.02724 20.7324 5.271C20.9912 5.86581 21.2893 6.44272 21.6248 6.99787C22.5094 8.3802 25.9781 10.3341 27.6409 17.6738C28.9362 25.2441 24.949 30.5984 22.0181 32.6252Z" fill="#12924F"/>
</svg>
