<svg width="42" height="43" viewBox="0 0 42 43" fill="none" xmlns="http://www.w3.org/2000/svg">
<path d="M31.9749 0.789551H9.91223C4.53656 0.789551 0.178711 5.1474 0.178711 10.5231V32.5857C0.178711 37.9614 4.53656 42.3192 9.91223 42.3192H31.9749C37.3506 42.3192 41.7084 37.9614 41.7084 32.5857V10.5231C41.7084 5.1474 37.3506 0.789551 31.9749 0.789551Z" fill="#242938"/>
<path d="M19.6264 5.83743C20.4244 5.38077 21.4636 5.37866 22.2607 5.83743C26.2713 8.10372 30.2831 10.3663 34.293 12.6339C35.0473 13.0587 35.5517 13.8981 35.5441 14.7671V28.4014C35.5498 29.3064 34.9954 30.1659 34.1997 30.581C30.2023 32.8348 26.2069 35.0912 22.2101 37.345C21.3959 37.8106 20.3358 37.7747 19.5467 37.2709C18.3484 36.5762 17.1479 35.8848 15.9494 35.1908C15.7044 35.0448 15.4283 34.9286 15.2554 34.6912C15.4084 34.4851 15.6817 34.4595 15.9038 34.3695C16.4039 34.2103 16.8635 33.955 17.3229 33.7073C17.4393 33.6278 17.581 33.6583 17.6925 33.7293C18.7173 34.3169 19.7331 34.9217 20.7613 35.5036C20.9806 35.6303 21.2027 35.462 21.3902 35.3576C25.3129 33.1404 29.2403 30.9319 33.1625 28.7141C33.3078 28.6442 33.3881 28.4899 33.3763 28.3308C33.379 23.8331 33.3769 19.3347 33.3777 14.8369C33.3943 14.6565 33.2898 14.4904 33.1264 14.4164C29.143 12.173 25.1613 9.92632 21.1785 7.68242C21.1096 7.63494 21.0278 7.60946 20.9441 7.60932C20.8604 7.60917 20.7785 7.63437 20.7094 7.68161C16.7264 9.92632 12.7457 12.1753 8.76279 14.4183C8.60008 14.4925 8.4909 14.6558 8.51021 14.8369C8.51102 19.3347 8.51021 23.8331 8.51021 28.3314C8.5033 28.4091 8.52037 28.4871 8.55912 28.5548C8.59787 28.6225 8.65644 28.6767 8.72694 28.7101C9.78968 29.3127 10.8539 29.9112 11.9174 30.5119C12.5167 30.8342 13.2522 31.026 13.9125 30.7789C14.4949 30.57 14.9032 29.9754 14.8922 29.357C14.8977 24.8856 14.8894 20.4135 14.8962 15.9426C14.8816 15.7442 15.07 15.5802 15.263 15.599C15.7737 15.5954 16.285 15.592 16.7957 15.6003C17.0089 15.5954 17.1555 15.8093 17.1292 16.0091C17.1271 20.5089 17.1348 25.0087 17.1258 29.5084C17.1271 30.7077 16.6345 32.0126 15.5252 32.5994C14.1587 33.3072 12.4696 33.1571 11.1196 32.4784C9.95093 31.895 8.83547 31.2066 7.68756 30.5817C6.88974 30.1688 6.33817 29.3059 6.34385 28.4015V14.7671C6.33541 13.8801 6.86005 13.0255 7.6376 12.6068C11.6343 10.3514 15.6304 8.09398 19.6264 5.83743Z" fill="#81CD39"/>
</svg>
